<?xml version="1.0" standalone="no"?>
<!DOCTYPE svg PUBLIC "-//W3C//DTD SVG 20010904//EN"
 "http://www.w3.org/TR/2001/REC-SVG-20010904/DTD/svg10.dtd">
<svg version="1.0" xmlns="http://www.w3.org/2000/svg"
 width="431.000000pt" height="431.000000pt" viewBox="0 0 431.000000 431.000000"
 preserveAspectRatio="xMidYMid meet">
<metadata>
Created by potrace 1.11, written by Peter Selinger 2001-2013
</metadata>
<g transform="translate(0.000000,431.000000) scale(0.100000,-0.100000)"
fill="#000000" stroke="none">
<path d="M1102 3997 c-41 -41 -52 -59 -52 -85 0 -36 0 -36 -54 -21 -38 11 -39
10 -92 -42 -44 -43 -54 -60 -54 -86 0 -31 -2 -33 -27 -27 -16 4 -37 10 -49 15
-17 6 -31 -2 -73 -45 l-51 -52 2 -1199 3 -1199 95 -25 95 -26 3 -102 3 -101
47 -11 c26 -7 71 -18 100 -27 l52 -15 0 -99 c0 -85 2 -99 18 -104 14 -5 1331
-359 1387 -373 11 -3 137 -37 280 -75 143 -38 312 -83 375 -100 63 -16 119
-32 123 -35 5 -3 33 19 63 48 44 43 54 60 54 86 0 37 0 37 54 22 38 -11 39
-10 92 42 44 43 54 60 54 86 0 31 2 33 28 27 15 -4 36 -10 48 -15 17 -6 31 2
73 45 l51 52 0 1199 0 1200 -100 25 -100 24 0 102 0 102 -47 11 c-27 7 -72 19
-100 27 l-53 15 0 99 c0 85 -2 99 -17 104 -24 7 -573 156 -596 161 -33 7 -551
146 -582 156 -27 8 -490 132 -670 179 -132 34 -309 82 -320 86 -6 3 -34 -19
-63 -49z m838 -1085 l105 -27 3 -201 2 -201 58 -16 c31 -9 76 -21 99 -27 l43
-11 2 -201 3 -201 88 -24 c49 -12 93 -26 98 -29 5 -3 9 -94 9 -202 l0 -197
100 -27 100 -26 0 600 c0 566 1 599 18 594 9 -2 54 -14 99 -26 l82 -22 3 -100
3 -101 95 -26 95 -26 3 -704 c2 -561 0 -702 -10 -698 -7 2 -187 51 -400 108
l-388 104 0 200 0 200 -97 26 -98 25 -3 202 -2 201 -43 11 c-23 6 -68 18 -99
27 l-58 16 0 201 0 201 -93 23 c-50 12 -95 22 -99 22 -5 0 -8 -268 -8 -595 0
-327 -3 -595 -7 -595 -5 0 -95 23 -200 51 l-193 52 0 802 0 802 293 -79 c160
-44 339 -91 397 -106z"/>
</g>
</svg>
