<svg xmlns="http://www.w3.org/2000/svg" xmlns:xlink="http://www.w3.org/1999/xlink" viewBox="0 0 95 28.67"><defs><style>.cls-1{fill:none;}.cls-2{fill:url(#名称未設定グラデーション_5);}.cls-3{clip-path:url(#clip-path);}.cls-4{fill:url(#名称未設定グラデーション_5-2);}.cls-5{fill:url(#名称未設定グラデーション_5-3);}.cls-6{clip-path:url(#clip-path-2);}.cls-7{fill:url(#名称未設定グラデーション_5-4);}.cls-8{clip-path:url(#clip-path-3);}.cls-9{fill:url(#名称未設定グラデーション_5-5);}.cls-10{fill:#fff;}</style><linearGradient id="名称未設定グラデーション_5" x1="24.1" y1="18.46" x2="31.07" y2="18.46" gradientTransform="matrix(1, 0, 0, -1, 0, 29.4)" gradientUnits="userSpaceOnUse"><stop offset="0" stop-color="#6ebfdc"/><stop offset="1" stop-color="#c0d466"/></linearGradient><clipPath id="clip-path"><path class="cls-1" d="M24.91,6.33a10.45,10.45,0,0,0-.35,7.1,9.59,9.59,0,0,0,.75,1.78l5.76.67L31,15.76l-.12-.08a6.5,6.5,0,0,1-2.33-2.83c-.07-.17-.14-.35-.2-.54h.55L25,6l-.13.3"/></clipPath><linearGradient id="名称未設定グラデーション_5-2" x1="19.67" y1="18.44" x2="35.51" y2="18.44" gradientTransform="matrix(0.53, 0.85, 0.85, -0.53, -2.7, -2.6)" xlink:href="#名称未設定グラデーション_5"/><linearGradient id="名称未設定グラデーション_5-3" x1="24.1" y1="19.04" x2="65.15" y2="19.04" xlink:href="#名称未設定グラデーション_5"/><clipPath id="clip-path-2"><path class="cls-1" d="M51.24.76A10.24,10.24,0,0,0,48,2.83c-.28.27-.55.55-.8.84a10.61,10.61,0,0,0-.8,1l-.31.4-.73,1a.82.82,0,0,1-1.16,0,.85.85,0,0,1-.14-.19V5.81l-.29-.39c-.46-.61-.94-1.22-1.4-1.75-.25-.29-.51-.57-.79-.84A10.53,10.53,0,0,0,38.64.88L38.35.76a10.33,10.33,0,0,0-7-.29,9.81,9.81,0,0,0-2.71,1.3,10.37,10.37,0,0,0-4.11,11.66,10.19,10.19,0,0,0,1.31,2.72,10.37,10.37,0,0,0,15.7,1.74,10.59,10.59,0,0,0,.79-.85,12.52,12.52,0,0,0,.81-1l.3-.39-2.19-3.2-.16-.25-.51.7c-.43.57-.86,1.11-1.22,1.53-.21.23-.39.43-.53.56a6.36,6.36,0,0,1-4.4,1.76,6.2,6.2,0,0,1-1.91-.3,6,6,0,0,1-1.68-.8,6.5,6.5,0,0,1-2.33-2.83c-.07-.17-.14-.35-.2-.54H34.1V8.44H28.33a6.46,6.46,0,0,1,3.63-4,6.32,6.32,0,0,1,2.5-.51,6.49,6.49,0,0,1,1.86.27l.55.19a6.6,6.6,0,0,1,2,1.29c.14.13.32.32.53.56s.44.52.67.82c.47.6,1,1.29,1.43,1.93l.2.28,3.85,5.63c.1.12.2.25.29.38.46.62.94,1.22,1.4,1.75a10.72,10.72,0,0,0,.8.85h0a10.36,10.36,0,0,0,16.65-3.5,10.68,10.68,0,0,0,.43-1.24h-4.2a5.56,5.56,0,0,1-.45.79,6.5,6.5,0,0,1-2.83,2.33,7.58,7.58,0,0,1-.8.28,6.51,6.51,0,0,1-1.7.23A6.4,6.4,0,0,1,50.73,15c-.13-.13-.32-.32-.53-.56l-.17-.2a6.41,6.41,0,0,1,.14-8h0l.41-.45.14-.12c.13-.12.26-.24.4-.35l.09-.07L51.6,5l.1-.06A6.31,6.31,0,0,1,57,4.23a7,7,0,0,1,1.68.8A6.49,6.49,0,0,1,61,7.79h4.15A1.94,1.94,0,0,0,65,7.28,10.38,10.38,0,0,0,51.24.76"/></clipPath><linearGradient id="名称未設定グラデーション_5-4" x1="74.98" y1="12.21" x2="90.96" y2="12.21" xlink:href="#名称未設定グラデーション_5"/><clipPath id="clip-path-3"><polygon class="cls-1" points="86.79 22.09 90.96 12.41 74.98 12.29 86.79 22.09"/></clipPath><linearGradient id="名称未設定グラデーション_5-5" x1="70.95" y1="12.2" x2="94.99" y2="12.2" gradientTransform="matrix(0.46, 0.89, 0.89, -0.46, 33.67, -50.64)" xlink:href="#名称未設定グラデーション_5"/></defs><g id="レイヤー_2" data-name="レイヤー 2"><g id="レイヤー_1-2" data-name="レイヤー 1"><g id="レイヤー_2-2" data-name="レイヤー 2"><g id="arvin.yamauchi"><path class="cls-2" d="M24.91,6.33a10.45,10.45,0,0,0-.35,7.1,9.59,9.59,0,0,0,.75,1.78l5.76.67L31,15.76l-.12-.08a6.5,6.5,0,0,1-2.33-2.83c-.07-.17-.14-.35-.2-.54h.55L25,6l-.13.3"/><g class="cls-3"><rect class="cls-4" x="21.56" y="5.39" width="12.05" height="11.14" transform="translate(3.64 28.5) rotate(-57.89)"/></g><path class="cls-5" d="M51.24.76A10.24,10.24,0,0,0,48,2.83c-.28.27-.55.55-.8.84a10.61,10.61,0,0,0-.8,1l-.31.4-.73,1a.82.82,0,0,1-1.16,0,.85.85,0,0,1-.14-.19V5.81l-.29-.39c-.46-.61-.94-1.22-1.4-1.75-.25-.29-.51-.57-.79-.84A10.53,10.53,0,0,0,38.64.88L38.35.76a10.33,10.33,0,0,0-7-.29,9.81,9.81,0,0,0-2.71,1.3,10.37,10.37,0,0,0-4.11,11.66,10.19,10.19,0,0,0,1.31,2.72,10.37,10.37,0,0,0,15.7,1.74,10.59,10.59,0,0,0,.79-.85,12.52,12.52,0,0,0,.81-1l.3-.39-2.19-3.2-.16-.25-.51.7c-.43.57-.86,1.11-1.22,1.53-.21.23-.39.43-.53.56a6.36,6.36,0,0,1-4.4,1.76,6.2,6.2,0,0,1-1.91-.3,6,6,0,0,1-1.68-.8,6.5,6.5,0,0,1-2.33-2.83c-.07-.17-.14-.35-.2-.54H34.1V8.44H28.33a6.46,6.46,0,0,1,3.63-4,6.32,6.32,0,0,1,2.5-.51,6.49,6.49,0,0,1,1.86.27l.55.19a6.6,6.6,0,0,1,2,1.29c.14.13.32.32.53.56s.44.52.67.82c.47.6,1,1.29,1.43,1.93l.2.28,3.85,5.63c.1.12.2.25.29.38.46.62.94,1.22,1.4,1.75a10.72,10.72,0,0,0,.8.85h0a10.36,10.36,0,0,0,16.65-3.5,10.68,10.68,0,0,0,.43-1.24h-4.2a5.56,5.56,0,0,1-.45.79,6.5,6.5,0,0,1-2.83,2.33,7.58,7.58,0,0,1-.8.28,6.51,6.51,0,0,1-1.7.23A6.4,6.4,0,0,1,50.73,15c-.13-.13-.32-.32-.53-.56l-.17-.2a6.41,6.41,0,0,1,.14-8h0l.41-.45.14-.12c.13-.12.26-.24.4-.35l.09-.07L51.6,5l.1-.06A6.31,6.31,0,0,1,57,4.23a7,7,0,0,1,1.68.8A6.49,6.49,0,0,1,61,7.79h4.15A1.94,1.94,0,0,0,65,7.28,10.38,10.38,0,0,0,51.24.76"/><g class="cls-6"><polygon class="cls-7" points="86.79 22.09 90.96 12.41 74.98 12.29 86.79 22.09"/><g class="cls-8"><rect class="cls-9" x="74.93" y="7.84" width="16.1" height="18.71" transform="translate(29.24 82.71) rotate(-62.35)"/></g></g><polygon class="cls-10" points="10.04 0.09 0 0.09 0 3.97 2.91 3.97 2.91 20.54 7.13 20.54 7.13 3.97 10.04 3.97 10.04 0.09"/><polygon class="cls-10" points="22.77 20.54 12.73 20.54 12.73 0.09 16.95 0.09 16.95 16.66 22.77 16.66 22.77 20.54"/><polygon class="cls-10" points="78.13 3.96 78.13 0.07 68.09 0.07 68.09 20.56 78.13 20.56 78.13 16.67 72.31 16.67 72.31 12.33 78.08 12.33 78.08 8.45 72.31 8.45 72.31 3.96 78.13 3.96"/></g></g></g></g></svg>