<svg id="_1" data-name="1" xmlns="http://www.w3.org/2000/svg" viewBox="0 0 453.24 509.67"><defs><style>.cls-1{fill:#414358;}</style></defs><path class="cls-1" d="M397.46,272l.08-.05.11-.08Z" transform="translate(-32.2 -2.33)"/><path class="cls-1" d="M472.24,271.24h0a43.46,43.46,0,0,0-15.31-10.73,49,49,0,0,0-18.85-3.67,59.38,59.38,0,0,0-18.8,3.19A63.58,63.58,0,0,0,402.15,269l-.44.32-.14.09-.5.43c-.57.48-1.65,1.31-3.07,2.34-5,3.69-14.18,10-25.09,17.45-7.16,4.85-15.08,10.16-23.1,15.51,0-.39,0-.78,0-1.17a47.3,47.3,0,0,0-47.26-47.26H202.51a184.67,184.67,0,0,0-42.81,4.59,124.78,124.78,0,0,0-44,19.6c-11.46,8.09-20.16,17-27.89,24.93-1.6,1.64-3.16,3.25-4.74,4.82L43.86,344.83A34.11,34.11,0,0,0,32.2,370.49V485.83a26.21,26.21,0,0,0,15.32,23.82h0a26.13,26.13,0,0,0,27.94-4l73-62.55L263.24,464a52.55,52.55,0,0,0,9.59.87,53.53,53.53,0,0,0,31-9.81l0,0c7.85-5.46,46.27-32.18,84.16-58.75,19-13.27,37.76-26.5,52.59-37,7.39-5.28,13.8-9.85,18.73-13.44,2.47-1.79,4.56-3.32,6.25-4.58s2.93-2.23,3.82-3h0l.3-.25.13-.11.39-.36a48.48,48.48,0,0,0,11.19-15.18,44.38,44.38,0,0,0,4.1-18v-.57A48.25,48.25,0,0,0,472.24,271.24ZM64.55,370.49a1.67,1.67,0,0,1,.58-1.27l40-35,.24-.24c1.84-1.84,3.67-3.71,5.51-5.59,19.79-20.26,38.49-39.4,91.61-39.4H302.59a14.9,14.9,0,1,1,0,29.79H229.8l-.15.6a19,19,0,0,0,3.5,37.61l2.56.09.44-.22h94.06l2.53-1.67c7.84-5.15,76.73-50.49,88.77-60.35a29.37,29.37,0,0,1,16.57-5.67c3.08,0,7.37.68,10.33,3.9,3.11,3.39,4.73,7.13,4.68,10.81a13.53,13.53,0,0,1-4.66,9.65c-12.37,10.06-161.61,113.85-163.11,114.9a21.58,21.58,0,0,1-12.49,4,21.26,21.26,0,0,1-3.81-.35L149.37,410.37a22.58,22.58,0,0,0-3.92-.35,22,22,0,0,0-14.28,5.24L64.55,472.38Z" transform="translate(-32.2 -2.33)"/><path class="cls-1" d="M320.27,2.33c-.49,0-1,0-1.46,0-29.85.57-49.16,15.29-60,33.13C248,17.64,228.69,2.92,198.84,2.35c-.49,0-1,0-1.46,0-20.15,0-38.44,8.08-51.48,22.75-13.63,15.34-20.84,36.84-20.84,62.2,0,49.78,39.92,80.14,78.52,109.5,14.9,11.33,30.3,23,43.63,35.89l.59.81a14.17,14.17,0,0,0,10.61,5.29h.85a14.15,14.15,0,0,0,10.58-5.28l.61-.82c13.32-12.85,28.72-24.56,43.61-35.89,38.61-29.36,78.53-59.72,78.53-109.5C392.59,37.26,362.85,2.33,320.27,2.33ZM258.82,202.08c-11.95-10.55-24.56-20.14-36.85-29.48-41.4-31.49-66.53-52.94-66.53-85.32,0-17.8,4.55-32.33,13.17-42,7.29-8.21,17.24-12.55,28.77-12.55h.78c15.78.3,27.42,6.53,34.69,18.52l26,42.8,26-42.8c7.27-12,18.91-18.22,34.59-18.52h.88c31,0,41.94,29.39,41.94,54.57,0,32.38-25.13,53.83-66.53,85.32C283.39,181.94,270.77,191.54,258.82,202.08Z" transform="translate(-32.2 -2.33)"/></svg>