<?xml version="1.0" encoding="utf-8"?>
<!-- Generator: Adobe Illustrator 25.2.0, SVG Export Plug-In . SVG Version: 6.00 Build 0)  -->
<svg version="1.1" id="レイヤー_1" xmlns="http://www.w3.org/2000/svg" xmlns:xlink="http://www.w3.org/1999/xlink" x="0px"
	 y="0px" viewBox="0 0 78.1 20.7" style="enable-background:new 0 0 78.1 20.7;" xml:space="preserve">
<style type="text/css">
	.st0{fill:url(#SVGID_1_);}
	.st1{clip-path:url(#SVGID_3_);}
	.st2{fill:url(#SVGID_4_);}
	.st3{fill:url(#SVGID_5_);}
	.st4{clip-path:url(#SVGID_7_);}
	.st5{fill:url(#SVGID_8_);}
	.st6{clip-path:url(#SVGID_10_);}
	.st7{fill:url(#SVGID_11_);}
	.st8{fill:#FFFFFF;}
</style>
<g id="レイヤー_2_1_">
	<g id="arvin.yamauchi">
		
			<linearGradient id="SVGID_1_" gradientUnits="userSpaceOnUse" x1="24.1" y1="19.06" x2="31.07" y2="19.06" gradientTransform="matrix(1 0 0 -1 0 30)">
			<stop  offset="0" style="stop-color:#6EBFDC"/>
			<stop  offset="1" style="stop-color:#C0D466"/>
		</linearGradient>
		<path class="st0" d="M24.9,6.3c-0.9,2.3-1.1,4.8-0.4,7.1c0.2,0.6,0.4,1.2,0.8,1.8l5.8,0.7L31,15.8l-0.1-0.1
			c-1-0.7-1.8-1.7-2.3-2.8c-0.1-0.2-0.1-0.4-0.2-0.5h0.5L25,6L24.9,6.3"/>
		<g>
			<defs>
				<path id="SVGID_2_" d="M24.9,6.3c-0.9,2.3-1.1,4.8-0.4,7.1c0.2,0.6,0.4,1.2,0.8,1.8l5.8,0.7L31,15.8l-0.1-0.1
					c-1-0.7-1.8-1.7-2.3-2.8c-0.1-0.2-0.1-0.4-0.2-0.5h0.5L25,6L24.9,6.3"/>
			</defs>
			<clipPath id="SVGID_3_">
				<use xlink:href="#SVGID_2_"  style="overflow:visible;"/>
			</clipPath>
			<g class="st1">
				
					<linearGradient id="SVGID_4_" gradientUnits="userSpaceOnUse" x1="19.6666" y1="19.0454" x2="35.5077" y2="19.0454" gradientTransform="matrix(1 0 0 -1 -1.010109e-03 30.0059)">
					<stop  offset="0" style="stop-color:#6EBFDC"/>
					<stop  offset="1" style="stop-color:#C0D466"/>
				</linearGradient>
				<polygon class="st2" points="19.7,13.1 26.1,2.9 35.5,8.8 29.1,19 				"/>
			</g>
		</g>
		
			<linearGradient id="SVGID_5_" gradientUnits="userSpaceOnUse" x1="24.0985" y1="19.645" x2="65.15" y2="19.645" gradientTransform="matrix(1 0 0 -1 0 30)">
			<stop  offset="0" style="stop-color:#6EBFDC"/>
			<stop  offset="1" style="stop-color:#C0D466"/>
		</linearGradient>
		<path class="st3" d="M51.2,0.8C50,1.2,48.9,1.9,48,2.8c-0.3,0.3-0.5,0.5-0.8,0.8c-0.3,0.3-0.5,0.6-0.8,1l-0.3,0.4l-0.7,1
			c-0.3,0.3-0.8,0.3-1.2,0c-0.1-0.1-0.1-0.1-0.1-0.2V5.8l-0.3-0.4c-0.5-0.6-0.9-1.2-1.4-1.8c-0.2-0.3-0.5-0.6-0.8-0.8
			c-0.9-0.8-1.9-1.5-2.9-2l-0.3-0.1C37.1,0.3,35.8,0,34.5,0c-1,0-2.1,0.2-3.1,0.5c-1,0.3-1.9,0.7-2.7,1.3c-3.8,2.6-5.5,7.3-4.1,11.7
			c0.3,1,0.7,1.9,1.3,2.7c1.9,2.9,5.1,4.6,8.6,4.6c2.6,0,5.2-1,7.1-2.8c0.3-0.3,0.5-0.6,0.8-0.9c0.3-0.3,0.5-0.6,0.8-1l0.3-0.4
			l-2.2-3.2l-0.2-0.2l-0.5,0.7c-0.4,0.6-0.9,1.1-1.2,1.5c-0.2,0.2-0.4,0.4-0.5,0.6c-1.2,1.1-2.8,1.8-4.4,1.8c-0.6,0-1.3-0.1-1.9-0.3
			c-0.6-0.2-1.2-0.4-1.7-0.8c-1-0.7-1.8-1.7-2.3-2.8c-0.1-0.2-0.1-0.4-0.2-0.5h5.8V8.4h-5.8c0.6-1.8,1.9-3.3,3.6-4
			c0.8-0.3,1.6-0.5,2.5-0.5c0.6,0,1.3,0.1,1.9,0.3l0.5,0.2c0.7,0.3,1.4,0.7,2,1.3C39,5.8,39.2,6,39.4,6.2s0.4,0.5,0.7,0.8
			c0.5,0.6,1,1.3,1.4,1.9l0.2,0.3l3.8,5.6c0.1,0.1,0.2,0.2,0.3,0.4c0.5,0.6,0.9,1.2,1.4,1.7c0.3,0.3,0.5,0.6,0.8,0.9l0,0
			c2.7,2.6,6.6,3.5,10.2,2.4c1-0.3,1.9-0.7,2.7-1.3c1.7-1.1,3-2.7,3.8-4.6c0.2-0.4,0.3-0.8,0.4-1.2h-4.2c-0.1,0.3-0.3,0.5-0.5,0.8
			c-0.7,1-1.7,1.8-2.8,2.3c-0.3,0.1-0.5,0.2-0.8,0.3c-0.6,0.1-1.1,0.2-1.7,0.2c-0.8,0-1.6-0.2-2.4-0.5c-0.7-0.3-1.4-0.7-2-1.3
			c-0.1-0.1-0.3-0.3-0.5-0.6L50,14.3c-1.8-2.4-1.8-5.7,0.1-8l0,0l0.4-0.4l0.1-0.1c0.1-0.1,0.3-0.2,0.4-0.3l0.1-0.1L51.6,5l0.1-0.1
			c0.3-0.2,0.7-0.4,1-0.5c0.8-0.3,1.6-0.5,2.4-0.5c0.6,0,1.3,0.1,1.9,0.3c0.6,0.2,1.2,0.5,1.7,0.8c1,0.7,1.8,1.6,2.3,2.8h4.2
			c0-0.2-0.1-0.3-0.1-0.5c-0.3-1-0.7-1.9-1.3-2.7C61,0.5,55.8-1.1,51.2,0.8"/>
		<g>
			<defs>
				<path id="SVGID_6_" d="M51.2,0.8C50,1.2,48.9,1.9,48,2.8c-0.3,0.3-0.5,0.5-0.8,0.8c-0.3,0.3-0.5,0.6-0.8,1l-0.3,0.4l-0.7,1
					c-0.3,0.3-0.8,0.3-1.2,0c-0.1-0.1-0.1-0.1-0.1-0.2V5.8l-0.3-0.4c-0.5-0.6-0.9-1.2-1.4-1.8c-0.2-0.3-0.5-0.6-0.8-0.8
					c-0.9-0.8-1.9-1.5-2.9-2l-0.3-0.1C37.1,0.3,35.8,0,34.5,0c-1,0-2.1,0.2-3.1,0.5c-1,0.3-1.9,0.7-2.7,1.3
					c-3.8,2.6-5.5,7.3-4.1,11.7c0.3,1,0.7,1.9,1.3,2.7c1.9,2.9,5.1,4.6,8.6,4.6c2.6,0,5.2-1,7.1-2.8c0.3-0.3,0.5-0.6,0.8-0.9
					c0.3-0.3,0.5-0.6,0.8-1l0.3-0.4l-2.2-3.2l-0.2-0.2l-0.5,0.7c-0.4,0.6-0.9,1.1-1.2,1.5c-0.2,0.2-0.4,0.4-0.5,0.6
					c-1.2,1.1-2.8,1.8-4.4,1.8c-0.6,0-1.3-0.1-1.9-0.3c-0.6-0.2-1.2-0.4-1.7-0.8c-1-0.7-1.8-1.7-2.3-2.8c-0.1-0.2-0.1-0.4-0.2-0.5
					h5.8V8.4h-5.8c0.6-1.8,1.9-3.3,3.6-4c0.8-0.3,1.6-0.5,2.5-0.5c0.6,0,1.3,0.1,1.9,0.3l0.5,0.2c0.7,0.3,1.4,0.7,2,1.3
					C39,5.8,39.2,6,39.4,6.2s0.4,0.5,0.7,0.8c0.5,0.6,1,1.3,1.4,1.9l0.2,0.3l3.8,5.6c0.1,0.1,0.2,0.2,0.3,0.4
					c0.5,0.6,0.9,1.2,1.4,1.7c0.3,0.3,0.5,0.6,0.8,0.9l0,0c2.7,2.6,6.6,3.5,10.2,2.4c1-0.3,1.9-0.7,2.7-1.3c1.7-1.1,3-2.7,3.8-4.6
					c0.2-0.4,0.3-0.8,0.4-1.2h-4.2c-0.1,0.3-0.3,0.5-0.5,0.8c-0.7,1-1.7,1.8-2.8,2.3c-0.3,0.1-0.5,0.2-0.8,0.3
					c-0.6,0.1-1.1,0.2-1.7,0.2c-0.8,0-1.6-0.2-2.4-0.5c-0.7-0.3-1.4-0.7-2-1.3c-0.1-0.1-0.3-0.3-0.5-0.6L50,14.3
					c-1.8-2.4-1.8-5.7,0.1-8l0,0l0.4-0.4l0.1-0.1c0.1-0.1,0.3-0.2,0.4-0.3l0.1-0.1L51.6,5l0.1-0.1c0.3-0.2,0.7-0.4,1-0.5
					c0.8-0.3,1.6-0.5,2.4-0.5c0.6,0,1.3,0.1,1.9,0.3c0.6,0.2,1.2,0.5,1.7,0.8c1,0.7,1.8,1.6,2.3,2.8h4.2c0-0.2-0.1-0.3-0.1-0.5
					c-0.3-1-0.7-1.9-1.3-2.7C61,0.5,55.8-1.1,51.2,0.8"/>
			</defs>
			<clipPath id="SVGID_7_">
				<use xlink:href="#SVGID_6_"  style="overflow:visible;"/>
			</clipPath>
			<g class="st4">
				
					<linearGradient id="SVGID_8_" gradientUnits="userSpaceOnUse" x1="74.98" y1="12.81" x2="90.96" y2="12.81" gradientTransform="matrix(1 0 0 -1 0 30)">
					<stop  offset="0" style="stop-color:#6EBFDC"/>
					<stop  offset="1" style="stop-color:#C0D466"/>
				</linearGradient>
				<polygon class="st5" points="86.8,22.1 91,12.4 75,12.3 				"/>
				<g>
					<defs>
						<polygon id="SVGID_9_" points="86.8,22.1 91,12.4 75,12.3 						"/>
					</defs>
					<clipPath id="SVGID_10_">
						<use xlink:href="#SVGID_9_"  style="overflow:visible;"/>
					</clipPath>
					<g class="st6">
						
							<linearGradient id="SVGID_11_" gradientUnits="userSpaceOnUse" x1="70.947" y1="12.8025" x2="94.9918" y2="12.8025" gradientTransform="matrix(1 0 0 -1 5.779975e-03 29.9974)">
							<stop  offset="0" style="stop-color:#6EBFDC"/>
							<stop  offset="1" style="stop-color:#C0D466"/>
						</linearGradient>
						<polygon class="st7" points="71,20 78.4,5.7 95,14.4 87.5,28.7 						"/>
					</g>
				</g>
			</g>
		</g>
		<polygon class="st8" points="10,0.1 0,0.1 0,4 2.9,4 2.9,20.5 7.1,20.5 7.1,4 10,4 		"/>
		<polygon class="st8" points="22.8,20.5 12.7,20.5 12.7,0.1 17,0.1 17,16.7 22.8,16.7 		"/>
		<polygon class="st8" points="78.1,4 78.1,0.1 68.1,0.1 68.1,20.6 78.1,20.6 78.1,16.7 72.3,16.7 72.3,12.3 78.1,12.3 78.1,8.4 
			72.3,8.4 72.3,4 		"/>
	</g>
</g>
</svg>
