<?xml version="1.0" encoding="utf-8"?>
<!-- Generator: Adobe Illustrator 25.2.1, SVG Export Plug-In . SVG Version: 6.00 Build 0)  -->
<svg version="1.1" id="レイヤー_1" xmlns="http://www.w3.org/2000/svg" xmlns:xlink="http://www.w3.org/1999/xlink" x="0px"
	 y="0px" viewBox="0 0 134 134" style="enable-background:new 0 0 134 134;" xml:space="preserve">
<style type="text/css">
	.st0{fill:none;stroke:#3E4255;stroke-width:4;stroke-linecap:round;stroke-linejoin:round;stroke-miterlimit:10;}
</style>
<image style="overflow:visible;enable-background:new    ;" width="1976" height="788" xlink:href="../../../../../Downloads/FireShot Capture 124 - Wanted! Tlece Shooters! - takamori.cdrive-inc.jp.png"  transform="matrix(1 0 0 1 -802.0632 -1212.3403)">
</image>
<g>
	<polyline class="st0" points="78.5,42 112.4,42 112.4,93.1 61.5,93.1 61.5,42 66.7,42 	"/>
	<g>
		<polyline class="st0" points="51.6,83.5 32.9,83.5 32.9,68.1 		"/>
		<line class="st0" x1="32.9" y1="62.5" x2="32.9" y2="59.6"/>
		<polyline class="st0" points="46.8,76.5 53.8,83.5 46.8,90.5 		"/>
	</g>
	<g>
		<polyline class="st0" points="81.2,11.7 99.9,11.7 99.9,27.1 		"/>
		<line class="st0" x1="99.9" y1="32.6" x2="99.9" y2="35.5"/>
		<polyline class="st0" points="86,18.6 79,11.7 86,4.7 		"/>
	</g>
	<g>
		<line class="st0" x1="45.9" y1="14.3" x2="45.9" y2="19.5"/>
		<line class="st0" x1="32.7" y1="20.5" x2="59" y2="20.5"/>
		<g>
			<path class="st0" d="M35.8,39c0,0,12.7-4.5,15.8-17.6"/>
			<path class="st0" d="M55.9,39c0,0-12.7-4.5-15.8-17.6"/>
		</g>
	</g>
	<g>
		<polyline class="st0" points="97.9,80.6 87.3,55.6 87.3,55.6 76.6,80.6 		"/>
		<line class="st0" x1="80.3" y1="74.6" x2="93.9" y2="74.6"/>
	</g>
	<polyline class="st0" points="55.3,53.1 21.3,53.1 21.3,2.2 72.3,2.2 72.3,53.1 67,53.1 	"/>
</g>
</svg>
