<svg version="1.1" xmlns="http://www.w3.org/2000/svg" x="0" y="0" viewBox="0 0 1207.6 612" xml:space="preserve"><g><rect x="298.3" y=".5" width="612" height="612" fill="none"/><g><g><path d="M1918.4 537.1c113.7.7 205.8 93.2 205.8 207.1 0 2.8-.1 5.7-.2 8.5.1.2.2.5.2.7 0 133.2-190.8 266.8-190.8 384.3v17.8c0 9-7.3 16.3-16.3 16.3s-16.3-7.3-16.3-16.3v-17.8c0-117.5-190.8-251.1-190.8-384.3 0-.2.1-.5.2-.7-.1-2.8-.2-5.7-.2-8.5 0-114.3 92.8-207.1 207.1-207.1h1.3z" fill-rule="evenodd" clip-rule="evenodd" fill="url(#SVGID_1_)" transform="translate(-812.041 -324.204) scale(.73882)"/></g><g><path d="M604.322 136.38c51.546 0 93.333 41.787 93.333 93.332s-41.787 93.332-93.333 93.332-93.334-41.787-93.334-93.332 41.867-93.332 93.334-93.332zm0 29.904c35.02 0 63.429 28.409 63.429 63.428 0 35.02-28.41 63.428-63.429 63.428-35.02 0-63.429-28.409-63.429-63.428 0-35.02 28.41-63.428 63.429-63.428z" fill-rule="evenodd" clip-rule="evenodd" fill="#fff"/></g></g></g></svg>