<?xml version="1.0" encoding="utf-8"?>
<!-- Generator: Adobe Illustrator 27.4.1, SVG Export Plug-In . SVG Version: 6.00 Build 0)  -->
<svg version="1.1" id="レイヤー_1" xmlns="http://www.w3.org/2000/svg" xmlns:xlink="http://www.w3.org/1999/xlink" x="0px"
	 y="0px" viewBox="0 0 33.6 51.5" style="enable-background:new 0 0 33.6 51.5;" xml:space="preserve">
<style type="text/css">
	.st0{fill-rule:evenodd;clip-rule:evenodd;fill:url(#SVGID_1_);}
	.st1{fill-rule:evenodd;clip-rule:evenodd;fill:#FFFFFF;}
</style>
<g>
	
		<linearGradient id="SVGID_1_" gradientUnits="userSpaceOnUse" x1="16.7931" y1="-114.9012" x2="16.7931" y2="-77.3945" gradientTransform="matrix(1 0 0 -1 0 -56.6076)">
		<stop  offset="0" style="stop-color:#80C6E4"/>
		<stop  offset="1" style="stop-color:#C5D562"/>
	</linearGradient>
	<path class="st0" d="M16.9,0.7c9,0.1,16.2,7.3,16.2,16.3c0,0.2,0,0.4,0,0.7c0,0,0,0,0,0.1c0,10.5-15,21-15,30.3v1.4
		c0,0.7-0.6,1.3-1.3,1.3s-1.3-0.6-1.3-1.3V48c0-9.3-15-19.8-15-30.3c0,0,0,0,0-0.1c0-0.2,0-0.4,0-0.7c0-9,7.3-16.3,16.3-16.3H16.9z"
		/>
	<path class="st1" d="M16.8,7.5c5.5,0,10,4.5,10,10s-4.5,10-10,10c-5.5,0-10-4.5-10-10S11.3,7.5,16.8,7.5L16.8,7.5z M16.8,10.7
		c3.7,0,6.8,3,6.8,6.8s-3,6.8-6.8,6.8c-3.7,0-6.8-3-6.8-6.8S13.1,10.7,16.8,10.7z"/>
</g>
</svg>
