<?xml version="1.0" encoding="UTF-8"?><svg id="_レイヤー_1" xmlns="http://www.w3.org/2000/svg" xmlns:xlink="http://www.w3.org/1999/xlink" viewBox="0 0 27.77 42.55"><defs><style>.cls-1{fill:#fff;}.cls-1,.cls-2{fill-rule:evenodd;}.cls-2{fill:url(#_名称未設定グラデーション);}</style><linearGradient id="_名称未設定グラデーション" x1="13.88" y1="-428.97" x2="13.88" y2="-397.05" gradientTransform="translate(0 -379.99) scale(1 -1)" gradientUnits="userSpaceOnUse"><stop offset="0" stop-color="#80c6e4"/><stop offset="1" stop-color="#c5d562"/></linearGradient></defs><path class="cls-2" d="m13.97,0c7.62.05,13.8,6.25,13.8,13.88,0,.19,0,.38-.01.57,0,.01.01.03.01.05,0,8.93-12.79,17.89-12.79,25.76v1.19c0,.6-.49,1.09-1.09,1.09s-1.09-.49-1.09-1.09v-1.19c0-7.88-12.79-16.83-12.79-25.76,0-.01,0-.03.01-.05,0-.19-.01-.38-.01-.57C0,6.22,6.22,0,13.88,0h.09Z"/><path class="cls-1" d="m13.88,5.79c4.68,0,8.47,3.79,8.47,8.47s-3.79,8.47-8.47,8.47-8.47-3.79-8.47-8.47,3.8-8.47,8.47-8.47h0Zm0,2.71c3.18,0,5.76,2.58,5.76,5.76s-2.58,5.76-5.76,5.76-5.76-2.58-5.76-5.76,2.58-5.76,5.76-5.76Z"/></svg>