<?xml version="1.0" encoding="utf-8"?><svg xmlns="http://www.w3.org/2000/svg" xmlns:xlink="http://www.w3.org/1999/xlink"><symbol viewBox="0 0 1207.6 612" id="icon_pin_1" xmlns="http://www.w3.org/2000/svg"><path d="M298.3.5h612v612h-612z"/><path d="M605.311 72.616c84.004.517 152.05 68.858 152.05 153.01 0 2.069-.074 4.211-.148 6.28.074.148.147.37.147.517 0 98.41-140.966 197.117-140.966 283.929v13.15c0 6.65-5.394 12.043-12.043 12.043s-12.043-5.393-12.043-12.042v-13.151c0-86.812-140.967-185.518-140.967-283.929 0-.148.074-.37.148-.517-.074-2.069-.148-4.211-.148-6.28 0-84.447 68.563-153.01 153.01-153.01h.96z" fill-rule="evenodd" clip-rule="evenodd"/><path d="M604.314 136.377c51.546 0 93.333 41.787 93.333 93.332s-41.787 93.331-93.333 93.331-93.333-41.786-93.333-93.331 41.866-93.332 93.333-93.332zm0 29.904c35.02 0 63.429 28.409 63.429 63.428s-28.41 63.427-63.429 63.427c-35.02 0-63.429-28.408-63.429-63.427 0-35.02 28.41-63.428 63.429-63.428z" fill-rule="evenodd" clip-rule="evenodd"/></symbol></svg>