<?xml version="1.0" encoding="utf-8"?>
<!-- Generator: Adobe Illustrator 25.2.0, SVG Export Plug-In . SVG Version: 6.00 Build 0)  -->
<svg version="1.1" id="レイヤー_1" xmlns="http://www.w3.org/2000/svg" xmlns:xlink="http://www.w3.org/1999/xlink" x="0px"
	 y="0px" viewBox="0 0 200 200" style="enable-background:new 0 0 200 200;" xml:space="preserve">
<style type="text/css">
	.st0{fill:#FFFFFF;}
</style>
<g>
	<path class="st0" d="M141.76,200.01H58.71c-32.24,0-58.47-26.23-58.47-58.47V58.49c0-32.24,26.23-58.47,58.47-58.47h83.05
		c32.24,0,58.47,26.23,58.47,58.47v83.05C200.23,173.78,174,200.01,141.76,200.01z M58.71,18.66c-21.96,0-39.83,17.87-39.83,39.83
		v83.05c0,21.96,17.87,39.83,39.83,39.83h83.05c21.96,0,39.83-17.87,39.83-39.83V58.49c0-21.96-17.87-39.83-39.83-39.83H58.71z"/>
	
		<ellipse transform="matrix(0.2283 -0.9736 0.9736 0.2283 73.1434 185.6329)" class="st0" cx="153.67" cy="46.68" rx="12.46" ry="12.46"/>
	<path class="st0" d="M100.23,151.71c-28.5,0-51.69-23.19-51.69-51.69c0-28.51,23.19-51.7,51.69-51.7c28.51,0,51.7,23.19,51.7,51.7
		C151.93,128.52,128.74,151.71,100.23,151.71z M100.23,66.96c-18.22,0-33.05,14.83-33.05,33.05c0,18.22,14.83,33.05,33.05,33.05
		c18.22,0,33.05-14.83,33.05-33.05C133.29,81.79,118.46,66.96,100.23,66.96z"/>
</g>
</svg>
